<svg xmlns="http://www.w3.org/2000/svg" viewBox="0 0 32 32" width="32" height="32">
  <defs>
    <linearGradient id="bgGrad" x1="0%" y1="0%" x2="100%" y2="100%">
      <stop offset="0%" stop-color="#10b981" />
      <stop offset="100%" stop-color="#059669" />
    </linearGradient>
  </defs>
  <rect width="32" height="32" rx="7" fill="url(#bgGrad)" />
  <path d="M 16,6 C 12.5,6 9,7.5 9,11.5 C 9,15.5 10.5,18 11.7,19.2 C 12.5,20 12.9,20.8 12.9,21.6 C 12.9,23.6 14,25 15.2,25 C 15.8,25 16,23.8 16,22.6 C 16,23.8 16.2,25 16.8,25 C 18,25 19.1,23.6 19.1,21.6 C 19.1,20.8 19.5,20 20.3,19.2 C 21.5,18 23,15.5 23,11.5 C 23,7.5 19.5,6 16,6 Z" fill="#ffffff" />
  <!-- Sparkle/Shine on the tooth -->
  <path d="M 18.5,9.5 C 19.5,9.5 19.5,8.5 19.5,8.5 C 19.5,8.5 19.5,9.5 20.5,9.5 C 19.5,9.5 19.5,10.5 19.5,10.5 C 19.5,10.5 19.5,9.5 18.5,9.5 Z" fill="#ecfdf5" opacity="0.9" />
</svg>
